<svg width="535" height="535" viewBox="0 0 535 535" fill="none" xmlns="http://www.w3.org/2000/svg">
<g clip-path="url(#clip0_64_30)">
<circle cx="267.5" cy="267.5" r="267.5" fill="#242424"/>
<path d="M210.301 266L468 93L493.5 125L511 162.5L253.603 341H167L210.301 266Z" fill="#C9C9C9"/>
<path d="M174.665 348.801C174.513 351.488 173.991 355.017 173.595 357.69C173.472 358.528 173.062 358.089 172.961 358.67C172.768 359.808 172.97 360.864 172.792 361.977C172.732 362.346 172.051 361.899 172.004 362.289C171.755 364.434 172.057 366.422 172.202 368.438C172.343 370.452 172.704 372.43 173.21 373.694C173.122 373.563 172.927 373.361 172.804 373.298C172.678 373.227 172.667 373.275 172.81 373.357C173.096 373.531 173.881 373.762 174.78 373.922C176.612 374.254 178.896 374.45 181.2 374.735C185.793 375.299 190.348 375.716 194.91 375.811C198.576 375.901 202.97 376.153 206.537 375.063C206.953 374.938 206.573 374.418 206.643 374.353C207.73 373.341 207.582 374.595 208.464 374.542C210.491 374.41 212.742 373.951 215.005 373.496C216.51 373.193 217.971 372.797 219.332 372.356C220.71 371.904 219.015 371.129 220.588 371.403C220.697 371.42 220.498 372.119 220.9 372.083C221.812 372.003 223.448 371.448 224.144 371.309C225.487 371.047 225.703 370.98 226.958 370.645C227.799 370.423 228.74 370.248 229.697 370.055C230.741 369.841 231.787 369.633 232.771 369.345C233.183 369.223 232.491 368.714 233.141 368.465C233.792 368.21 235.61 367.932 236.241 367.993C236.878 368.047 236.691 368.587 236.816 368.685C237.821 369.509 239.722 367.935 240.007 367.883C244.934 366.878 249.31 367.767 254.002 368.787C256.328 369.319 258.785 369.968 261.2 371.34C262.9 372.314 264.154 373.903 264.822 375.369C266.846 380.418 265.835 383.872 265.531 387.742C265.484 388.148 266.295 387.769 266.236 388.27C265.851 391.453 265.185 394.471 264.379 397.386C263.695 399.958 262.358 402.133 260.895 403.882C260.529 404.316 260.401 403.346 260.008 403.743C257.604 406.221 253.259 408.687 254.012 412.033C253.659 412.352 253.291 412.684 252.91 413.021C251.591 414.191 250.115 415.366 248.736 416.028C247.588 416.577 247.968 415.25 247.077 416.479C246.873 416.756 247.623 416.93 247.283 417.311C245.855 418.909 243.945 420.274 242.521 421.859C242.229 422.185 242.678 422.549 242.648 422.705C242.368 424.001 240.17 423.994 239.819 424.138C237.135 425.282 235.657 426.727 233.503 428.222C233.001 428.568 234.026 428.779 233.561 429.133C232.696 429.784 231.793 430.421 230.886 431.02C229.311 432.057 227.738 433.055 226.196 433.983C225.659 434.306 225.708 433.443 225.431 433.573C224.21 434.161 224.77 435.286 223.669 435.89C223.44 436.019 223.182 435.507 223.107 435.493C221.899 435.282 222.334 436.733 222.225 436.877C220.793 438.813 218.734 438.982 217.459 440.998C217.314 441.236 218.247 441.153 217.811 441.795C216.891 443.159 216.013 444.634 214.974 446.217C214.019 447.422 214.223 450.473 214.788 453.565C214.817 453.874 214.887 454.176 215.016 454.492C215.238 454.98 214.6 454.974 214.558 455.03C214.147 456.208 215.555 455.652 215.711 455.722C217.182 456.546 218.457 458.347 220.598 457.638C220.817 457.768 221.051 457.907 221.288 458.054C227.698 461.796 237.126 458.343 245.673 456.925C245.788 456.902 245.812 457.604 246.042 457.556C247.403 457.273 247.888 456.92 248.174 456.431C248.478 455.921 248.58 455.257 249.223 454.32C249.548 453.856 251.415 454.784 251.58 454.84C252.159 455.059 252.077 456.162 252.25 456.181C253.669 456.303 252.274 453.311 253.849 452.677C253.901 452.662 253.918 453.31 254.075 453.312C254.562 453.319 254.881 452.929 255.361 452.959C256.473 453.024 257.421 454.368 258.473 452.911C258.6 452.725 257.609 451.117 259.038 450.6C259.617 450.395 262.057 449.286 262.795 449.081C263.526 448.883 263.307 449.644 263.365 449.646C265.553 449.526 264.988 450.144 266.415 450.785C267.845 451.415 266.401 448.994 266.642 448.535C266.88 448.08 268.514 448.027 268.947 448.07C269.376 448.116 269.133 448.66 269.482 448.634C271.814 448.435 269.718 446.969 270.167 446.251C271.193 444.565 273.292 445.827 274.753 445.287C275.142 445.144 274.624 444.882 274.933 444.668C276.148 443.828 277.226 443.982 278.382 442.635C278.542 442.448 278.954 441.147 279.758 440.993C279.912 440.957 280.084 440.954 280.274 440.997C280.452 441.044 280.419 441.668 281.024 441.439C281.946 441.085 283.482 440.359 284.302 439.723C284.899 439.257 283.735 438.912 284.702 438.696C285.126 438.605 284.676 439.409 285.455 439.2C286.231 438.992 288.003 438.049 288.67 437.69C289.34 437.328 288.674 436.941 288.709 436.874C288.924 436.483 290.094 435.541 290.205 435.486C295.595 432.689 301.053 431.081 306.208 428.323C306.594 428.117 306.986 427.91 307.376 427.705C307.832 427.469 307.241 426.987 307.307 426.944C308.818 425.971 308.266 428.188 309.601 428.286C308.911 427.072 309.668 427.022 310.747 426.451C311.269 426.175 310.783 425.784 310.814 425.714C311.353 424.643 312.291 425.431 312.504 425.584C313.308 426.14 313.587 425.056 314.127 425.433C314.661 425.809 314.069 426.828 315.151 426.457C315.303 425.884 314.079 424.923 314.85 424.448C317.771 422.642 323.953 421.874 326.492 421.195C326.732 421.131 326.957 421.071 327.169 421.012C329.166 420.457 329.926 420.128 331.274 419.829C333.97 419.206 332.693 418.641 334.116 417.631C335.537 416.606 335.635 419.106 336.051 419.49C336.463 419.874 336.521 419.287 336.907 419.433C337.293 419.579 336.812 420.146 337.514 419.976C338.224 419.805 339.674 418.21 339.69 417.621C339.732 416.374 338.466 415.639 340.332 415.273C340.44 415.253 340.374 415.962 340.774 415.854C343.948 414.974 347.036 413.503 350.178 412.451C350.617 412.305 350.549 413.106 350.806 413.029C353.472 412.25 352.051 411.629 352.943 409.807C353.298 411.502 354.488 412.026 356.156 411.565C356.213 411.551 356.271 411.536 356.33 411.52C357.53 411.184 357.121 410.517 357.751 409.784C357.94 409.563 358.934 409.818 358.989 409.434C359.18 408.175 358.022 407.152 360.236 407.066C360.334 407.064 360.214 407.756 360.54 407.705C362.64 407.385 362.564 406.142 364.777 405.43C366.516 404.866 369.856 404.898 371.909 404.688C372.2 406.603 373.998 405.863 374.6 404.435C375.936 404.304 377.356 404.062 378.655 404.118C379.1 404.137 378.867 404.725 378.929 404.78C379.869 405.644 380.319 404.299 380.6 404.224C380.869 404.156 381.139 404.101 381.408 404.057C384.157 403.607 386.51 404.28 389.194 403.369C389.298 403.333 389.458 401.982 390.26 402.962C390.312 403.03 389.338 403.647 390.729 403.689C392.125 403.731 394.726 404.479 396.665 403.905C397.131 403.766 398.35 402.705 399.269 403.593C399.391 403.713 399.24 404.095 399.413 404.316C399.977 405.022 400.35 403.673 400.992 404.857C401.626 406.026 402.973 406.942 404.896 406.307C404.923 406.298 404.95 406.289 404.977 406.279C405.041 406.26 405.559 405.208 406.169 405.267C407.137 405.361 408.492 405.705 409.501 405.808C409.984 405.857 409.748 405.157 409.834 405.154C413.149 405.155 415.4 406.122 418.758 407.114C419.37 407.295 421.391 406.83 422.421 407.844C423.547 408.955 421.349 411.776 424.567 411.821C425.13 411.831 425.948 411.163 426.819 410.607C428.005 409.883 429.133 409.284 430.249 410.685C434.705 410.752 438.869 411.752 443.247 410.503C443.442 410.447 443.929 409.214 444.38 409.169C445.065 409.101 445.513 409.583 446.011 409.54C448.084 409.368 449.842 408.521 451.766 408.054C452.483 407.873 452.41 408.487 453.281 408.243C454.159 407.982 454.475 407.096 455.713 406.93C456.321 406.835 457.13 407.187 458.077 407.158C458.59 407.162 459.112 407.071 459.541 406.795C458.619 405.61 459.329 405.089 460.066 403.715C460.203 403.452 459.613 403.325 459.657 403.184C459.821 402.607 460.474 402.507 460.573 401.922C460.597 401.781 460.203 401.456 460.198 401.324C460.136 400.21 461.873 399.75 462.184 399.644C463.352 399.286 463.042 398.538 463.687 398.081C464.332 397.616 464.062 398.752 464.675 398.112C465.951 396.776 467.02 394.704 467.904 393.107C468.255 392.467 467.418 392.583 467.455 392.484C468.012 391.079 469.358 390.074 468.551 388.701C472.087 389.423 468.767 387.792 470.265 386.256C470.286 386.236 470.311 386.212 470.337 386.188C470.456 386.079 471.735 386.573 471.907 387.175C471.905 387.177 471.901 387.185 471.9 387.188C471.919 387.251 471.925 387.315 471.916 387.38C471.816 388.047 470.898 388.649 470.812 389.62C470.792 389.845 471.594 391.655 471.602 391.842C471.641 393.344 469.359 392.35 469.207 392.345C467.542 392.348 468.305 394.46 468.209 394.87C467.792 396.727 466.702 397.91 466.197 399.43C465.859 400.423 467.16 401.4 466.651 402.071C464.871 404.336 462.623 403.599 462.138 406.945C461.981 407.663 463.722 408.566 460.965 409.084C460.875 409.097 460.237 409.145 459.593 409.317C458.898 409.548 458.245 409.798 457.988 410.362C457.919 410.511 458.152 410.973 458.01 411.09C457.076 411.845 456.262 411.718 455.267 412.277C454.272 412.832 453.085 413.486 451.858 413.612C451.118 413.692 450 412.953 449.621 412.791C448.553 412.324 447.754 413.603 447.028 412.89C446.318 412.167 447.218 410.75 445.657 410.456C445.807 411.794 445.885 413.179 445.991 414.53C442.543 414.99 439.129 414.811 435.629 414.822C435.193 414.823 435.628 415.555 435.154 415.573C433.141 415.635 431.428 414.998 429.284 414.888C428.199 414.831 426.975 414.966 425.713 414.946C425.12 414.956 424.545 414.946 424.006 414.873C423.481 413.141 421.218 413.07 419.734 412.568C419.211 412.391 419.343 412.001 418.992 411.78C417.667 410.966 418.041 412.449 417.603 412.57C415.76 413.109 416.227 410.056 414.181 409.771C414.064 409.751 412.51 411.162 412.32 411.24C411.101 411.734 412.22 410.646 411.524 410.425C410.258 410.029 409.381 409.529 407.794 409.862C407.323 409.96 406.185 410.891 405.366 410.047C405.258 409.937 405.356 409.399 405.265 409.362C405.068 409.286 404.891 409.244 404.73 409.23C403.529 409.124 403.318 410.499 402.427 410.964C401.419 411.492 399.946 410.257 399.646 409.907C398.864 409.001 400.283 409.555 400.332 409.472C400.891 408.469 399.766 408.6 398.913 408.485C398.846 406.81 397.638 406.873 398.029 408.373C398.073 408.537 398.743 408.402 398.913 408.485C398.105 410.098 396.807 410.268 395.39 408.707C394.725 407.978 395.382 407.146 393.307 407.426C392.366 407.556 392.719 408.709 391.896 409.018C390.022 409.725 387.587 408.678 385.675 408.92C384.984 409.007 385.682 409.611 385.215 409.693C384.051 409.902 382.988 409.55 381.867 409.794C381.795 409.81 381.723 409.827 381.651 409.847C381.538 409.879 381.871 410.513 381.48 410.554C378.539 410.879 375.959 410.744 372.965 411.236C371.516 411.466 369.039 412.348 367.54 412.641C364.952 413.129 361.447 413.13 359.227 414.007C357.779 414.575 358.282 415.118 357.768 415.732C357.67 415.848 357.556 415.946 357.429 416.026C357.141 416.485 354.877 416.083 354.578 415.986C354.568 415.979 355.621 415.337 354.89 415.293C354.24 414.812 354.591 415.977 354.578 415.986C354.356 415.908 351.943 416.895 351.512 417.248C351.288 417.433 351.703 417.927 351.58 418.013C348.619 420.075 345.341 421.82 341.766 423.032C341.701 423.046 341.516 422.365 341.367 422.406C339.259 422.967 338.295 424.275 336.785 425.4C335.277 426.52 333.836 426.85 332.441 426.061C331.485 426.513 330.077 426.674 328.938 426.727C328.603 426.741 328.296 426.746 328.033 426.748C326.901 426.759 327.155 428.103 327.071 428.157C324.48 429.848 322.617 429.587 319.705 430.366C318.317 430.732 315.718 431.783 314.389 432.426C313.338 432.933 312.576 432.882 311.697 433.461C311.58 433.539 311.94 434.046 311.91 434.083C311.161 435.184 311.078 433.615 310.756 433.464C309.914 433.07 309.301 432.841 308.617 433.15C308.325 433.285 308.015 433.497 307.666 433.809C307.373 434.07 307.329 436.473 306.763 436.893C306.027 437.434 305.992 436.599 305.23 437.183C305.164 437.232 305.388 437.647 304.859 437.886C302.401 439.001 299.651 440.051 297.184 441.333C296.845 441.507 297.615 441.959 297.132 442.221C294.871 443.447 292.355 444.683 290.027 445.505C289.446 445.708 289.542 445.067 289.352 444.991C288.199 444.532 287.845 446.273 287.699 446.383C286.536 447.258 285.39 447.915 284.437 448.44C281.629 450.022 279.109 450.876 276.362 452.742C276.145 452.895 274.975 455.129 273.595 454.405C273.505 454.356 272.13 453.6 271.804 454.733C271.782 454.804 272.579 455.155 271.663 455.522C270.758 455.882 269.52 456.955 267.993 456.855C267.514 456.823 266.081 456.069 265.342 457.517C265.306 457.613 264.445 460.521 263.162 459.335C262.949 459.14 262.402 457.542 261.355 458.93C261.155 459.197 261.781 459.34 261.179 459.851C260.245 460.639 258.655 460.809 257.607 462.042C257.426 462.259 256.861 463.72 255.745 463.224C255.572 463.146 255.601 462.529 255.16 462.635C253.746 462.971 252.416 463.589 251.019 464.079C250.325 464.323 249.608 464.535 248.872 464.659C248.083 464.791 248.158 463.801 247.31 463.835C246.456 463.872 244.822 464.159 244.118 464.807C243.408 465.458 244.748 466.573 243.51 467.061C238.065 469.121 232.043 469.703 225.157 468.975C224.124 468.837 224.937 469.479 223.357 469.25C221.454 468.942 218.923 468.376 216.298 466.951C215.35 466.444 213.007 465.489 210.763 463.75C208.481 462.104 206.134 458.749 205.858 455.852C205.858 455.758 205.859 455.663 205.862 455.57C205.939 452.152 207.568 456.052 207.335 453.503C207.227 452.295 205.342 451.023 205.256 450.618C204.518 447.699 205.127 444.39 207.213 441.193C207.407 440.906 207.596 440.589 207.777 440.232C207.994 439.801 207.163 439.833 207.357 439.467C208.018 438.202 209.203 436.945 210.099 435.648C210.501 435.066 210.007 434.853 210.448 434.352C211.5 433.162 212.607 432.236 213.997 431.498C214.122 431.433 213.958 432.538 214.758 431.746C216.051 430.472 217.994 429.361 219.214 427.722C219.576 427.235 218.848 426.279 220.368 426.139C220.684 426.115 221.279 427.455 221.698 425.588C221.759 425.277 222.789 422.464 224.394 422.685C224.596 422.712 225.01 422.848 225.439 422.92C225.864 423.019 226.31 423.04 226.525 422.779C226.579 422.707 225.936 422.368 226.331 422.024C227.722 420.822 229.318 419.781 230.697 418.517C231.064 418.178 230.076 418.083 230.634 417.595C232.161 416.258 234.247 414.85 235.907 413.757C236.516 413.358 236.478 414.1 236.557 414.113C237.841 414.317 237.388 412.981 237.554 412.742C238.598 411.26 240.01 410.843 241.102 409.633C241.402 409.302 240.747 409.051 240.775 408.95C241.083 407.929 241.34 409.219 241.852 408.916C243.237 408.099 244.48 406.859 245.559 405.673C245.604 405.624 245.649 405.575 245.693 405.526C246.12 405.056 245.104 405.046 245.49 404.632C247.769 402.169 250.129 399.86 251.879 398.118C252.207 397.792 252.497 398.348 252.657 398.344C253.803 398.281 253.228 396.849 253.187 396.665C253.083 395.714 253.609 395.699 253.687 395.13C253.695 395.049 253.702 394.97 253.708 394.892C254.646 389.455 256.046 382.449 255.469 380.223C255.417 379.912 255.372 379.788 255.438 379.823C255.496 379.853 255.703 380.016 255.88 380.069C253.705 378.475 249.415 377.342 244.953 377.462C244.571 377.471 244.958 378.213 244.631 378.232C240.599 378.438 236.455 378.808 232.387 380.078C232.224 380.128 232.062 380.179 231.9 380.23C231.519 380.35 232.258 380.881 231.653 381.096C230.411 381.543 228.775 381.953 227.396 382.095C226.724 382.165 227.428 381.347 226.755 381.429C225.186 381.619 223.534 382.008 221.966 382.519C221.297 382.738 222.502 383.18 221.616 383.41C220.221 383.774 218.815 384.125 217.396 384.444C213.667 385.283 208.491 386.86 203.136 386.704C202.671 386.693 202.104 385.285 201.179 385.65C201.142 386.062 201.187 386.538 201.192 386.974C193.777 387.759 186.942 387.04 180.128 386.267C178.202 386.031 176.207 385.885 173.816 385.586C173.382 385.529 174.051 386.398 173.185 386.283C171.779 386.076 170.219 385.873 168.135 385.069C166.138 384.357 163.11 382.265 161.796 379.321C160.588 376.692 160.168 374.328 160.075 372.032C160.063 371.531 161.433 371.519 161.017 370.174C160.93 369.923 160.5 367.89 160.166 367.378C160.115 367.309 159.513 367.745 159.436 367.08C159.01 363.194 159.18 359.256 159.758 355.591C159.854 355.001 160.498 355.668 160.573 355.251C161.096 352.3 160.897 349.031 161.907 346.281C162.592 344.449 163.653 345.327 164.95 344.528C165.13 344.424 165.356 343.283 166.03 343.349C167.719 343.511 169.445 344.365 171.257 344.473C171.646 344.488 171.497 343.054 172.263 344.031C172.313 344.098 172.438 345.145 172.711 345.449C172.899 345.658 173.625 345.468 173.845 345.856C174.067 346.238 173.437 346.536 173.678 347.159C173.925 347.794 174.729 347.638 174.665 348.801ZM322.964 426.788C321.821 426.452 322.379 428.784 323.24 427.924C323.281 427.88 323.022 426.804 322.964 426.788ZM439.055 412.906C437.672 411.91 436.765 413.461 437.753 414.262C438.767 415.054 439.49 413.205 439.055 412.906ZM452.748 409.957C451.017 409.583 451.6 412.936 453.143 411.795C453.231 411.729 452.853 409.976 452.748 409.957ZM164.646 349.096C164.679 349.083 164.806 348.279 164.779 348.252C164.077 347.722 163.819 349.354 164.646 349.096ZM463.417 400.929C462.772 401.061 462.358 402.491 463.176 402.352C463.851 402.23 464.237 400.754 463.417 400.929ZM275.335 446.301C275.306 446.276 274.78 446.516 274.882 446.69C275.223 447.245 275.845 446.71 275.335 446.301ZM474.5 380.657C474.44 380.903 474.355 381.138 474.252 381.354C474.245 381.372 474.225 381.425 474.216 381.442C472.503 383.989 469.637 384.118 471.437 381.305C471.783 380.75 471.599 382.96 472.201 382.336C472.649 381.869 472.729 381.307 472.757 380.749L472.721 380.837C472.632 380.089 472.267 379.612 472.826 378.667C473.01 378.366 474.644 380.319 474.502 380.664C474.501 380.662 474.5 380.659 474.5 380.657ZM321.58 424.205C321.553 424.18 320.776 424.385 320.769 424.42C320.577 425.272 322.134 424.862 321.58 424.205ZM243.882 458.222C243.821 458.175 242.057 458.667 242.016 458.74C241.454 460.22 245.074 459.216 243.882 458.222ZM371.95 404.734C372.699 403.831 373.766 403.58 374.596 404.434C373.719 404.504 372.833 404.632 371.95 404.734Z" fill="white"/>
</g>
<defs>
<clipPath id="clip0_64_30">
<rect width="535" height="535" fill="white"/>
</clipPath>
</defs>
</svg>
